# xmcd
#
# Track frame offsets:
#	150
#	16547
#	32186
#	48208
#
# Disc length: 823 seconds
#
# Revision: 1
# Processed by: cddbd v1.5.2PL0 Copyright (c) Steve Scherf et al.
# Submitted via: audiograbber 1.83.01
#
DISCID=21033504
DTITLE=Townsend, Duncan - Go! Go!
DYEAR=2009
DGENRE=Rock
TTITLE0=Go! Go!
TTITLE1=So many ways
TTITLE2=Don't fight
TTITLE3=Go! Go! (Acoustic)
EXTD=
EXTT0=
EXTT1=
EXTT2=
EXTT3=
PLAYORDER=
